Coordinates
version=1
nRows=7
nColumns=40
inDegrees=yes

Units are S.I. units (second, meters, Newtons, ...)
Angles are in degrees.

endheader
time	pelvis_tilt	pelvis_list	pelvis_rotation	pelvis_tx	pelvis_ty	pelvis_tz	hip_flexion_r	hip_adduction_r	hip_rotation_r	knee_angle_r	knee_angle_r_beta	ankle_angle_r	subtalar_angle_r	mtp_angle_r	hip_flexion_l	hip_adduction_l	hip_rotation_l	knee_angle_l	knee_angle_l_beta	ankle_angle_l	subtalar_angle_l	mtp_angle_l	lumbar_extension	lumbar_bending	lumbar_rotation	arm_flex_r	arm_add_r	arm_rot_r	elbow_flex_r	pro_sup_r	wrist_flex_r	wrist_dev_r	arm_flex_l	arm_add_l	arm_rot_l	elbow_flex_l	pro_sup_l	wrist_flex_l	wrist_dev_l
      1.35000000	    -35.27814178	      0.15526389	     -3.95049850	     -2.02114910	      0.93380428	      0.19555081	     38.51035501	     -0.24185047	     -8.74348885	      7.68336481	      7.68336481	     -2.39935345	      0.00000000	      0.00000000	     35.96264508	     -2.34394138	     -7.60947800	      4.68860837	      4.68860837	     -3.63921444	      0.00000000	      0.00000000	     34.83648412	     -0.56922228	     -0.54834901	     -3.38700651	    -14.13432662	     24.68105649	     33.91877325	     57.99877786	      0.00000000	      0.00000000	     -3.91592887	    -11.38334575	     25.59741451	     18.63900473	     56.15230038	      0.00000000	      0.00000000
      1.36000000	    -35.05828844	      0.11537507	     -4.02004620	     -2.01995420	      0.93397539	      0.19457984	     38.30207901	     -0.26678076	     -8.81305830	      7.87461545	      7.87461545	     -2.15108027	      0.00000000	      0.00000000	     35.68589390	     -2.34257437	     -7.68247450	      4.77519607	      4.77519607	     -3.40050512	      0.00000000	      0.00000000	     34.50190555	     -0.53950487	     -0.47453020	     -3.31819077	    -14.28341405	     25.05056140	     33.92131722	     59.07218129	      0.00000000	      0.00000000	     -3.72354895	    -11.49974390	     26.58710449	     18.54061639	     57.45813600	      0.00000000	      0.00000000
      1.37000000	    -35.06294816	      0.09774942	     -4.02972612	     -2.01900249	      0.93393960	      0.19346151	     38.37551909	     -0.33966409	     -8.81380754	      8.12446166	      8.12446166	     -2.03244364	      0.00000000	      0.00000000	     35.70077015	     -2.30021607	     -7.66729584	      4.92281142	      4.92281142	     -3.22740405	      0.00000000	      0.00000000	     34.42518045	     -0.54848525	     -0.57503571	     -3.30812802	    -14.24231357	     24.88892159	     33.97001319	     58.98425888	      0.00000000	      0.00000000	     -3.69254727	    -11.40512889	     26.43838762	     18.46577847	     57.34804453	      0.00000000	      0.00000000
      1.38000000	    -35.04387547	      0.05351833	     -4.04679650	     -2.01782952	      0.93389612	      0.19235230	     38.37982999	     -0.38199266	     -8.85819541	      8.31001309	      8.31001309	     -1.90615719	      0.00000000	      0.00000000	     35.67679290	     -2.28400281	     -7.68088287	      5.07794362	      5.07794362	     -3.04483391	      0.00000000	      0.00000000	     34.32591882	     -0.52189959	     -0.61595783	     -3.47384652	    -14.23205163	     24.52770371	     34.25486587	     58.65617609	      0.00000000	      0.00000000	     -3.74002139	    -11.33085319	     26.03140788	     18.67149841	     57.06613970	      0.00000000	      0.00000000
      1.39000000	    -34.98326389	      0.05523012	     -4.09376065	     -2.01697571	      0.93400425	      0.19122888	     38.50548283	     -0.47921748	     -8.90550215	      8.77647912	      8.77647912	     -1.75554668	      0.00000000	      0.00000000	     35.64397948	     -2.24073590	     -7.69341060	      5.25471878	      5.25471878	     -2.93490836	      0.00000000	      0.00000000	     34.15938313	     -0.54505392	     -0.64552123	     -3.25463810	    -14.20470663	     24.79785048	     33.88498112	     58.78162813	      0.00000000	      0.00000000	     -3.47429777	    -11.19332224	     26.34112272	     18.19524728	     57.24685911	      0.00000000	      0.00000000
      1.40000000	    -34.90208553	      0.03365712	     -4.12803419	     -2.01584956	      0.93410423	      0.19004616	     38.54785486	     -0.55694784	     -8.89046460	      9.15497331	      9.15497331	     -1.64834051	      0.00000000	      0.00000000	     35.54832059	     -2.19979436	     -7.68060303	      5.38362167	      5.38362167	     -2.83994118	      0.00000000	      0.00000000	     33.97640360	     -0.53743583	     -0.68847427	     -3.25062898	    -14.26921512	     24.91551023	     33.90971228	     58.85159775	      0.00000000	      0.00000000	     -3.34388353	    -11.12242307	     26.54743851	     18.04946310	     57.37172896	      0.00000000	      0.00000000
      1.41000000	    -34.83537363	      0.02997605	     -4.13890645	     -2.01473686	      0.93413814	      0.18882590	     38.64280635	     -0.66982651	     -8.90295656	      9.60091124	      9.60091124	     -1.43608140	      0.00000000	      0.00000000	     35.50736664	     -2.13375785	     -7.77513226	      5.58144447	      5.58144447	     -2.65594741	      0.00000000	      0.00000000	     33.80601866	     -0.56101216	     -0.73948700	     -3.26412196	    -14.36850294	     25.08481893	     33.97356542	     59.24408869	      0.00000000	      0.00000000	     -3.22329538	    -11.13137449	     27.07708093	     17.97177229	     57.72929707	      0.00000000	      0.00000000
